<svg width="136" height="39" viewBox="0 0 136 39" fill="none" xmlns="http://www.w3.org/2000/svg">
<g filter="url(#filter0_d_2923_10)">
<rect x="2" width="132" height="35" rx="2" fill="#F3F1F1"/>
</g>
<path d="M74.8608 22V13.2727H80.4517V14.598H76.4418V16.9673H80.0682V18.2926H76.4418V22H74.8608ZM81.8239 22V15.4545H83.3665V22H81.8239ZM82.5994 14.5256C82.3551 14.5256 82.1449 14.4446 81.9688 14.2827C81.7926 14.1179 81.7045 13.9205 81.7045 13.6903C81.7045 13.4574 81.7926 13.2599 81.9688 13.098C82.1449 12.9332 82.3551 12.8509 82.5994 12.8509C82.8466 12.8509 83.0568 12.9332 83.2301 13.098C83.4063 13.2599 83.4943 13.4574 83.4943 13.6903C83.4943 13.9205 83.4063 14.1179 83.2301 14.2827C83.0568 14.4446 82.8466 14.5256 82.5994 14.5256ZM88.2681 15.4545V16.6477H84.3988V15.4545H88.2681ZM85.3661 22V14.8366C85.3661 14.3963 85.457 14.0298 85.6388 13.7372C85.8235 13.4446 86.0707 13.2259 86.3803 13.081C86.69 12.9361 87.0337 12.8636 87.4116 12.8636C87.6786 12.8636 87.9158 12.8849 88.1232 12.9276C88.3306 12.9702 88.484 13.0085 88.5835 13.0426L88.2766 14.2358C88.2113 14.2159 88.1289 14.196 88.0295 14.1761C87.93 14.1534 87.8192 14.142 87.6971 14.142C87.4102 14.142 87.207 14.2116 87.0877 14.3509C86.9712 14.4872 86.913 14.6832 86.913 14.9389V22H85.3661ZM92.7447 15.4545V16.6477H88.9819V15.4545H92.7447ZM89.9109 13.8864H91.4535V20.0312C91.4535 20.2386 91.4847 20.3977 91.5472 20.5085C91.6126 20.6165 91.6978 20.6903 91.8029 20.7301C91.908 20.7699 92.0245 20.7898 92.1523 20.7898C92.2489 20.7898 92.337 20.7827 92.4165 20.7685C92.4989 20.7543 92.5614 20.7415 92.604 20.7301L92.864 21.9361C92.7816 21.9645 92.6637 21.9957 92.5103 22.0298C92.3597 22.0639 92.1751 22.0838 91.9563 22.0895C91.57 22.1009 91.2219 22.0426 90.9123 21.9148C90.6026 21.7841 90.3569 21.5824 90.1751 21.3097C89.9961 21.0369 89.908 20.696 89.9109 20.2869V13.8864ZM95.718 18.1648V22H94.1754V13.2727H95.6839V16.5668H95.7607C95.9141 16.1974 96.1513 15.9062 96.4723 15.6932C96.7962 15.4773 97.2081 15.3693 97.7081 15.3693C98.1626 15.3693 98.5589 15.4645 98.897 15.6548C99.2351 15.8452 99.4964 16.1236 99.6811 16.4901C99.8686 16.8565 99.9624 17.304 99.9624 17.8324V22H98.4197V18.071C98.4197 17.6307 98.3061 17.2884 98.0788 17.044C97.8544 16.7969 97.5391 16.6733 97.1328 16.6733C96.8601 16.6733 96.6158 16.733 96.3999 16.8523C96.1868 16.9687 96.0192 17.1378 95.897 17.3594C95.7777 17.581 95.718 17.8494 95.718 18.1648ZM100.669 14.598V13.2727H107.632V14.598H104.934V22H103.366V14.598H100.669ZM108.226 22V15.4545H109.722V16.5455H109.79C109.909 16.1676 110.114 15.8764 110.404 15.6719C110.696 15.4645 111.03 15.3608 111.405 15.3608C111.49 15.3608 111.586 15.3651 111.691 15.3736C111.799 15.3793 111.888 15.3892 111.959 15.4034V16.8224C111.894 16.7997 111.79 16.7798 111.648 16.7628C111.509 16.7429 111.374 16.733 111.243 16.733C110.962 16.733 110.709 16.794 110.485 16.9162C110.263 17.0355 110.088 17.2017 109.961 17.4148C109.833 17.6278 109.769 17.8736 109.769 18.152V22H108.226ZM114.142 24.4545C113.932 24.4545 113.737 24.4375 113.558 24.4034C113.382 24.3722 113.241 24.3352 113.136 24.2926L113.494 23.0909C113.719 23.1563 113.919 23.1875 114.095 23.1847C114.271 23.1818 114.426 23.1264 114.56 23.0185C114.696 22.9134 114.811 22.7372 114.905 22.4901L115.037 22.1364L112.663 15.4545H114.3L115.808 20.3977H115.876L117.389 15.4545H119.03L116.409 22.7926C116.287 23.1392 116.125 23.4361 115.923 23.6832C115.722 23.9332 115.474 24.1236 115.182 24.2543C114.892 24.3878 114.545 24.4545 114.142 24.4545Z" fill="#EC8208"/>
<path d="M16.9688 22V14H17.9375V17.5625H22.2031V14H23.1719V22H22.2031V18.4219H17.9375V22H16.9688ZM27.4238 22.125C26.8822 22.125 26.4069 21.9961 25.998 21.7383C25.5918 21.4805 25.2741 21.1198 25.0449 20.6562C24.8184 20.1927 24.7051 19.651 24.7051 19.0312C24.7051 18.4062 24.8184 17.8607 25.0449 17.3945C25.2741 16.9284 25.5918 16.5664 25.998 16.3086C26.4069 16.0508 26.8822 15.9219 27.4238 15.9219C27.9655 15.9219 28.4395 16.0508 28.8457 16.3086C29.2546 16.5664 29.5723 16.9284 29.7988 17.3945C30.028 17.8607 30.1426 18.4062 30.1426 19.0312C30.1426 19.651 30.028 20.1927 29.7988 20.6562C29.5723 21.1198 29.2546 21.4805 28.8457 21.7383C28.4395 21.9961 27.9655 22.125 27.4238 22.125ZM27.4238 21.2969C27.8353 21.2969 28.1738 21.1914 28.4395 20.9805C28.7051 20.7695 28.9017 20.4922 29.0293 20.1484C29.1569 19.8047 29.2207 19.4323 29.2207 19.0312C29.2207 18.6302 29.1569 18.2565 29.0293 17.9102C28.9017 17.5638 28.7051 17.2839 28.4395 17.0703C28.1738 16.8568 27.8353 16.75 27.4238 16.75C27.0124 16.75 26.6738 16.8568 26.4082 17.0703C26.1426 17.2839 25.946 17.5638 25.8184 17.9102C25.6908 18.2565 25.627 18.6302 25.627 19.0312C25.627 19.4323 25.6908 19.8047 25.8184 20.1484C25.946 20.4922 26.1426 20.7695 26.4082 20.9805C26.6738 21.1914 27.0124 21.2969 27.4238 21.2969ZM35.7998 17.3437L34.9717 17.5781C34.9196 17.4401 34.8428 17.306 34.7412 17.1758C34.6423 17.043 34.5068 16.9336 34.335 16.8477C34.1631 16.7617 33.943 16.7187 33.6748 16.7187C33.3076 16.7187 33.0016 16.8034 32.7568 16.9727C32.5146 17.1393 32.3936 17.3516 32.3936 17.6094C32.3936 17.8385 32.4769 18.0195 32.6436 18.1523C32.8102 18.2852 33.0706 18.3958 33.4248 18.4844L34.3154 18.7031C34.8519 18.8333 35.2516 19.0326 35.5146 19.3008C35.7777 19.5664 35.9092 19.9089 35.9092 20.3281C35.9092 20.6719 35.8102 20.9792 35.6123 21.25C35.417 21.5208 35.1436 21.7344 34.792 21.8906C34.4404 22.0469 34.0316 22.125 33.5654 22.125C32.9535 22.125 32.4469 21.9922 32.0459 21.7266C31.6449 21.4609 31.391 21.0729 31.2842 20.5625L32.1592 20.3437C32.2425 20.6667 32.4001 20.9089 32.6318 21.0703C32.8662 21.2318 33.1722 21.3125 33.5498 21.3125C33.9795 21.3125 34.3206 21.2214 34.5732 21.0391C34.8285 20.8542 34.9561 20.6328 34.9561 20.375C34.9561 20.1667 34.8831 19.9922 34.7373 19.8516C34.5915 19.7083 34.3675 19.6016 34.0654 19.5312L33.0654 19.2969C32.516 19.1667 32.1123 18.9648 31.8545 18.6914C31.5993 18.4154 31.4717 18.0703 31.4717 17.6562C31.4717 17.3177 31.5667 17.0182 31.7568 16.7578C31.9495 16.4974 32.2113 16.293 32.542 16.1445C32.8753 15.9961 33.2529 15.9219 33.6748 15.9219C34.2686 15.9219 34.7347 16.0521 35.0732 16.3125C35.4144 16.5729 35.6566 16.9167 35.7998 17.3437ZM39.9063 16V16.7812H36.7969V16H39.9063ZM37.7031 14.5625H38.625V20.2812C38.625 20.5417 38.6628 20.737 38.7383 20.8672C38.8164 20.9948 38.9154 21.0807 39.0352 21.125C39.1576 21.1667 39.2865 21.1875 39.4219 21.1875C39.5234 21.1875 39.6068 21.1823 39.6719 21.1719C39.737 21.1589 39.7891 21.1484 39.8281 21.1406L40.0156 21.9687C39.9531 21.9922 39.8659 22.0156 39.7539 22.0391C39.6419 22.0651 39.5 22.0781 39.3281 22.0781C39.0677 22.0781 38.8125 22.0221 38.5625 21.9102C38.3151 21.7982 38.1094 21.6276 37.9453 21.3984C37.7839 21.1693 37.7031 20.8802 37.7031 20.5312V14.5625ZM43.7441 22.125C43.166 22.125 42.6673 21.9974 42.248 21.7422C41.8314 21.4844 41.5098 21.125 41.2832 20.6641C41.0592 20.2005 40.9473 19.6615 40.9473 19.0469C40.9473 18.4323 41.0592 17.8906 41.2832 17.4219C41.5098 16.9505 41.8249 16.5833 42.2285 16.3203C42.6348 16.0547 43.1087 15.9219 43.6504 15.9219C43.9629 15.9219 44.2715 15.974 44.5762 16.0781C44.8809 16.1823 45.1582 16.3516 45.4082 16.5859C45.6582 16.8177 45.8574 17.125 46.0059 17.5078C46.1543 17.8906 46.2285 18.362 46.2285 18.9219V19.3125H41.6035V18.5156H45.291C45.291 18.1771 45.2233 17.875 45.0879 17.6094C44.9551 17.3437 44.765 17.1341 44.5176 16.9805C44.2728 16.8268 43.9837 16.75 43.6504 16.75C43.2832 16.75 42.9655 16.8411 42.6973 17.0234C42.4316 17.2031 42.2272 17.4375 42.084 17.7266C41.9408 18.0156 41.8691 18.3255 41.8691 18.6562V19.1875C41.8691 19.6406 41.9473 20.0247 42.1035 20.3398C42.2624 20.6523 42.4824 20.8906 42.7637 21.0547C43.0449 21.2161 43.3717 21.2969 43.7441 21.2969C43.9863 21.2969 44.2051 21.263 44.4004 21.1953C44.5983 21.125 44.7689 21.0208 44.9121 20.8828C45.0553 20.7422 45.166 20.5677 45.2441 20.3594L46.1348 20.6094C46.041 20.9115 45.8835 21.1771 45.6621 21.4062C45.4408 21.6328 45.1673 21.8099 44.8418 21.9375C44.5163 22.0625 44.1504 22.125 43.7441 22.125ZM49.8965 22.125C49.3965 22.125 48.9551 21.9987 48.5723 21.7461C48.1895 21.4909 47.89 21.1315 47.6738 20.668C47.4577 20.2018 47.3496 19.651 47.3496 19.0156C47.3496 18.3854 47.4577 17.8385 47.6738 17.375C47.89 16.9115 48.1908 16.5534 48.5762 16.3008C48.9616 16.0482 49.4069 15.9219 49.9121 15.9219C50.3027 15.9219 50.6113 15.987 50.8379 16.1172C51.0671 16.2448 51.2415 16.3906 51.3613 16.5547C51.4837 16.7161 51.5788 16.849 51.6465 16.9531H51.7246V14H52.6465V22H51.7559V21.0781H51.6465C51.5788 21.1875 51.4824 21.3255 51.3574 21.4922C51.2324 21.6562 51.054 21.8034 50.8223 21.9336C50.5905 22.0612 50.2819 22.125 49.8965 22.125ZM50.0215 21.2969C50.3913 21.2969 50.7038 21.2005 50.959 21.0078C51.2142 20.8125 51.4082 20.543 51.541 20.1992C51.6738 19.8529 51.7402 19.4531 51.7402 19C51.7402 18.5521 51.6751 18.1602 51.5449 17.8242C51.4147 17.4857 51.222 17.2227 50.9668 17.0352C50.7116 16.8451 50.3965 16.75 50.0215 16.75C49.6309 16.75 49.3053 16.8503 49.0449 17.0508C48.7871 17.2487 48.5931 17.5182 48.4629 17.8594C48.3353 18.1979 48.2715 18.5781 48.2715 19C48.2715 19.4271 48.3366 19.8151 48.4668 20.1641C48.5996 20.5104 48.7949 20.7865 49.0527 20.9922C49.3132 21.1953 49.6361 21.2969 50.0215 21.2969ZM59.9941 22.125C59.4525 22.125 58.9772 21.9961 58.5684 21.7383C58.1621 21.4805 57.8444 21.1198 57.6152 20.6562C57.3887 20.1927 57.2754 19.651 57.2754 19.0312C57.2754 18.4062 57.3887 17.8607 57.6152 17.3945C57.8444 16.9284 58.1621 16.5664 58.5684 16.3086C58.9772 16.0508 59.4525 15.9219 59.9941 15.9219C60.5358 15.9219 61.0098 16.0508 61.416 16.3086C61.8249 16.5664 62.1426 16.9284 62.3691 17.3945C62.5983 17.8607 62.7129 18.4062 62.7129 19.0312C62.7129 19.651 62.5983 20.1927 62.3691 20.6562C62.1426 21.1198 61.8249 21.4805 61.416 21.7383C61.0098 21.9961 60.5358 22.125 59.9941 22.125ZM59.9941 21.2969C60.4056 21.2969 60.7441 21.1914 61.0098 20.9805C61.2754 20.7695 61.472 20.4922 61.5996 20.1484C61.7272 19.8047 61.791 19.4323 61.791 19.0312C61.791 18.6302 61.7272 18.2565 61.5996 17.9102C61.472 17.5638 61.2754 17.2839 61.0098 17.0703C60.7441 16.8568 60.4056 16.75 59.9941 16.75C59.5827 16.75 59.2441 16.8568 58.9785 17.0703C58.7129 17.2839 58.5163 17.5638 58.3887 17.9102C58.2611 18.2565 58.1973 18.6302 58.1973 19.0312C58.1973 19.4323 58.2611 19.8047 58.3887 20.1484C58.5163 20.4922 58.7129 20.7695 58.9785 20.9805C59.2441 21.1914 59.5827 21.2969 59.9941 21.2969ZM65.042 18.3906V22H64.1201V16H65.0107V16.9375H65.0889C65.2295 16.6328 65.443 16.388 65.7295 16.2031C66.016 16.0156 66.3857 15.9219 66.8389 15.9219C67.2451 15.9219 67.6006 16.0052 67.9053 16.1719C68.21 16.3359 68.4469 16.5859 68.6162 16.9219C68.7855 17.2552 68.8701 17.6771 68.8701 18.1875V22H67.9482V18.25C67.9482 17.7786 67.8258 17.4115 67.5811 17.1484C67.3363 16.8828 67.0003 16.75 66.5732 16.75C66.279 16.75 66.016 16.8138 65.7842 16.9414C65.555 17.069 65.374 17.2552 65.2412 17.5C65.1084 17.7448 65.042 18.0417 65.042 18.3906Z" fill="black"/>
<defs>
<filter id="filter0_d_2923_10" x="0" y="0" width="136" height="39" filterUnits="userSpaceOnUse" color-interpolation-filters="sRGB">
<feFlood flood-opacity="0" result="BackgroundImageFix"/>
<feColorMatrix in="SourceAlpha" type="matrix" values="0 0 0 0 0 0 0 0 0 0 0 0 0 0 0 0 0 0 127 0" result="hardAlpha"/>
<feOffset dy="2"/>
<feGaussianBlur stdDeviation="1"/>
<feComposite in2="hardAlpha" operator="out"/>
<feColorMatrix type="matrix" values="0 0 0 0 0 0 0 0 0 0 0 0 0 0 0 0 0 0 0.25 0"/>
<feBlend mode="normal" in2="BackgroundImageFix" result="effect1_dropShadow_2923_10"/>
<feBlend mode="normal" in="SourceGraphic" in2="effect1_dropShadow_2923_10" result="shape"/>
</filter>
</defs>
</svg>
