<svg width="44" height="43" viewBox="0 0 44 43" fill="none" xmlns="http://www.w3.org/2000/svg">
<path d="M12.0963 26.0165C12.428 26.0463 12.7622 26.0043 13.0762 25.8935C13.3902 25.7827 13.6766 25.6055 13.9161 25.3741C14.1556 25.1427 14.3424 24.8625 14.4639 24.5524C14.5854 24.2424 14.6388 23.9098 14.6204 23.5774C14.6472 22.4251 14.667 21.2656 14.6727 20.1059C14.6555 19.9784 14.688 19.8492 14.7635 19.7452C14.8391 19.6411 14.9518 19.5701 15.0783 19.547C15.6609 19.3873 16.2306 19.1566 16.8198 19.0323C19.5567 18.4967 22.3632 18.4157 25.1265 18.7925C26.5122 18.9302 27.8711 19.2655 29.1618 19.788C29.2793 19.8212 29.3806 19.8963 29.4466 19.999C29.5126 20.1018 29.5387 20.2251 29.52 20.3458C29.4863 21.4909 29.4739 22.6293 29.4612 23.7818C29.4237 24.1234 29.4619 24.4691 29.5731 24.7943C29.6843 25.1194 29.8657 25.4161 30.1045 25.6632C30.3433 25.9104 30.6337 26.1019 30.9548 26.2241C31.276 26.3464 31.6202 26.3964 31.9629 26.3706L34.6919 26.4173C35.6251 26.4332 36.5653 26.4564 37.5199 26.4657C37.8508 26.4921 38.1836 26.4479 38.4961 26.3358C38.8086 26.2238 39.0937 26.0465 39.3325 25.8158C39.5712 25.5851 39.7581 25.3062 39.8808 24.9977C40.0034 24.6892 40.0591 24.3582 40.044 24.0265C40.0779 22.8673 40.0623 21.7143 40.1176 20.5483C40.1653 19.5208 39.8153 18.5144 39.1403 17.7381C38.0208 16.4772 36.6375 15.478 35.0885 14.8117C31.9445 13.353 28.5721 12.4484 25.1202 12.1376C20.486 11.6346 15.7978 12.1258 11.3686 13.5783C9.34996 14.1717 7.4698 15.1613 5.83787 16.4893C5.27804 16.9206 4.82896 17.4789 4.52779 18.1182C4.22661 18.7575 4.08201 19.4592 4.10595 20.1655C4.15156 21.22 4.08379 22.2868 4.06564 23.3473C4.03245 23.6861 4.0733 24.0281 4.18534 24.3497C4.29739 24.6712 4.47797 24.9645 4.71457 25.2094C4.95118 25.4542 5.23816 25.6447 5.55567 25.7677C5.87317 25.8907 6.21359 25.9432 6.55339 25.9216C8.39144 25.9625 10.2391 25.9941 12.0963 26.0165Z" fill="white"/>
</svg>
