<svg width="606" height="484" viewBox="0 0 606 484" fill="none" xmlns="http://www.w3.org/2000/svg">
<g clip-path="url(#clip0_6_106)">
<path fill-rule="evenodd" clip-rule="evenodd" d="M429.55 111.565V278.438H262.85C201.55 278.438 151.8 228.686 151.8 167.323V111.565C151.8 50.1518 201.55 0.450439 262.85 0.450439H318.55C379.85 0.450439 429.55 50.1518 429.55 111.565ZM369.9 141.096C369.9 97.3005 334.4 61.8138 290.7 61.8138C246.95 61.8138 211.5 97.3005 211.5 141.096C211.5 184.891 246.95 220.378 290.7 220.378C311.35 220.378 330.15 212.469 344.2 199.506L369.9 232.04V141.096Z" fill="#EF8435"/>
<path d="M13.7 380.443H0.400024V482.248H49.3V471.437H13.7V380.443Z" fill="black"/>
<path fill-rule="evenodd" clip-rule="evenodd" d="M126.45 419.483C129.617 425.289 131.2 431.846 131.2 439.154C131.2 441.69 131.05 444.376 130.75 447.212H66.8C67.3 455.087 70 461.243 74.9 465.681C79.8333 470.119 85.8 472.338 92.8 472.338C98.5333 472.338 103.317 470.987 107.15 468.284C111.017 465.614 113.717 462.044 115.25 457.573H129.55C127.417 465.247 123.15 471.504 116.75 476.342C110.317 481.147 102.333 483.55 92.8 483.55C85.2 483.55 78.4167 481.848 72.45 478.444C66.45 475.041 61.75 470.202 58.35 463.929C54.95 457.656 53.25 450.365 53.25 442.057C53.25 433.781 54.9 426.524 58.2 420.284C61.5 414.078 66.15 409.289 72.15 405.919C78.1167 402.549 85 400.864 92.8 400.864C100.4 400.864 107.117 402.516 112.95 405.819C118.783 409.156 123.283 413.711 126.45 419.483ZM117.45 436.401C117.45 431.329 116.333 426.958 114.1 423.287C111.867 419.65 108.833 416.881 105 414.979C101.133 413.077 96.8667 412.126 92.2 412.126C85.5 412.126 79.7833 414.261 75.05 418.532C70.35 422.837 67.65 428.793 66.95 436.401H117.45Z" fill="black"/>
<path d="M159.65 382.045H146.35V402.216H136V413.127H146.35V460.326C146.35 468.134 148.2 473.739 151.9 477.143C155.6 480.546 161.15 482.248 168.55 482.248H180.5V470.987H170.75C166.65 470.987 163.767 470.186 162.1 468.584C160.467 466.982 159.65 464.23 159.65 460.326V413.127H180.5V402.216H159.65V382.045Z" fill="black"/>
<path d="M184.75 413.577H194.1L208.1 380.443H193.35L184.75 413.577Z" fill="black"/>
<path d="M271.5 448.664C268.933 445.627 265.85 443.358 262.25 441.856C258.65 440.355 253.967 438.82 248.2 437.252C243.633 435.984 240.067 434.833 237.5 433.798C234.933 432.797 232.8 431.446 231.1 429.744C229.367 428.042 228.5 425.873 228.5 423.237C228.5 419.934 229.917 417.248 232.75 415.179C235.583 413.143 239.383 412.126 244.15 412.126C249.283 412.126 253.383 413.394 256.45 415.93C259.517 418.466 261.2 421.819 261.5 425.99H274.8C274.4 418.215 271.483 412.092 266.05 407.621C260.583 403.116 253.433 400.864 244.6 400.864C238.833 400.864 233.717 401.865 229.25 403.867C224.783 405.869 221.333 408.572 218.9 411.976C216.467 415.379 215.25 419.133 215.25 423.237C215.25 428.409 216.583 432.564 219.25 435.7C221.917 438.87 225.133 441.256 228.9 442.857C232.633 444.493 237.467 446.077 243.4 447.612C249.933 449.281 254.75 450.966 257.85 452.668C260.983 454.369 262.55 456.972 262.55 460.476C262.55 463.879 261.083 466.699 258.15 468.934C255.217 471.203 251.233 472.338 246.2 472.338C240.733 472.338 236.317 471.07 232.95 468.534C229.617 465.998 227.75 462.728 227.35 458.724H213.65C213.917 463.596 215.467 467.9 218.3 471.637C221.133 475.408 224.983 478.344 229.85 480.446C234.717 482.515 240.217 483.55 246.35 483.55C252.083 483.55 257.167 482.565 261.6 480.596C266 478.594 269.417 475.842 271.85 472.338C274.283 468.834 275.5 464.88 275.5 460.476C275.4 455.604 274.067 451.667 271.5 448.664Z" fill="black"/>
<path d="M306.9 399.713H334.05V482.248H359V399.713H386.15V379.692H306.9V399.713Z" fill="#EF8435"/>
<path d="M487.4 482.248H512.4V374.136H487.4V482.248Z" fill="#EF8435"/>
<path d="M571.8 441.656L605.65 400.714H574.85L550.2 433.898V374.136H525.2V482.248H550.2V448.063L575 482.248H605.95L571.8 441.656Z" fill="#EF8435"/>
<path fill-rule="evenodd" clip-rule="evenodd" d="M473.7 433.298V482.298H424.8C405.45 482.298 389.75 466.582 389.75 447.162V433.298C389.75 413.928 405.45 398.211 424.8 398.211H438.65C458 398.211 473.7 413.928 473.7 433.298ZM455.65 440.755C455.65 440.388 455.65 440.021 455.65 439.654C455.583 438.553 455.467 437.469 455.3 436.401C453.25 425.239 443.45 416.781 431.7 416.781C418.5 416.781 407.75 427.492 407.75 440.755C407.75 453.969 418.5 464.73 431.7 464.73C437.95 464.73 443.65 462.328 447.9 458.424L455.65 468.234V440.755Z" fill="#EF8435"/>
</g>
<defs>
<clipPath id="clip0_6_106">
<rect width="606" height="484" fill="white"/>
</clipPath>
</defs>
</svg>
