<svg width="25" height="24" viewBox="0 0 25 24" fill="none" xmlns="http://www.w3.org/2000/svg">
<path d="M19.6201 9.12011C19.2301 9.12011 18.9201 9.43011 18.9201 9.82011V11.4001C18.9201 14.9401 16.0401 17.8201 12.5001 17.8201C8.96005 17.8201 6.08005 14.9401 6.08005 11.4001V9.81011C6.08005 9.42011 5.77005 9.11011 5.38005 9.11011C4.99005 9.11011 4.68005 9.42011 4.68005 9.81011V11.3901C4.68005 15.4601 7.81005 18.8101 11.8001 19.1701V21.3001C11.8001 21.6901 12.1101 22.0001 12.5001 22.0001C12.8901 22.0001 13.2001 21.6901 13.2001 21.3001V19.1701C17.1801 18.8201 20.3201 15.4601 20.3201 11.3901V9.81011C20.3101 9.43011 20.0001 9.12011 19.6201 9.12011Z" fill="#171717"/>
<path d="M12.5 2C10.06 2 8.07996 3.98 8.07996 6.42V11.54C8.07996 13.98 10.06 15.96 12.5 15.96C14.94 15.96 16.92 13.98 16.92 11.54V6.42C16.92 3.98 14.94 2 12.5 2ZM13.81 8.95C13.74 9.21 13.51 9.38 13.25 9.38C13.2 9.38 13.15 9.37 13.1 9.36C12.71 9.25 12.3 9.25 11.91 9.36C11.59 9.45 11.28 9.26 11.2 8.95C11.11 8.64 11.3 8.32 11.61 8.24C12.2 8.08 12.82 8.08 13.41 8.24C13.71 8.32 13.89 8.64 13.81 8.95ZM14.34 7.01C14.25 7.25 14.03 7.39 13.79 7.39C13.72 7.39 13.66 7.38 13.59 7.36C12.89 7.1 12.11 7.1 11.41 7.36C11.11 7.47 10.77 7.31 10.66 7.01C10.55 6.71 10.71 6.37 11.01 6.27C11.97 5.92 13.03 5.92 13.99 6.27C14.29 6.38 14.45 6.71 14.34 7.01Z" fill="#171717"/>
</svg>
