<svg width="25" height="24" viewBox="0 0 25 24" fill="none" xmlns="http://www.w3.org/2000/svg">
<path opacity="0.4" d="M18.24 7.57007C18.25 7.64007 18.25 7.72007 18.24 7.79007C18.24 7.72007 18.23 7.65007 18.23 7.58007L18.24 7.57007Z" fill="#171717"/>
<path d="M17.78 6.56L4.33 20.01C2.93 19.12 2.38 17.53 2.38 16V8C2.38 4.58 3.71 3.25 7.13 3.25H13.13C16.02 3.25 17.41 4.2 17.78 6.56Z" fill="#171717"/>
<path d="M21.9 2.22988C21.6 1.92988 21.11 1.92988 20.81 2.22988L2.35 20.6899C2.05 20.9899 2.05 21.4799 2.35 21.7799C2.5 21.9199 2.7 21.9999 2.89 21.9999C3.09 21.9999 3.28 21.9199 3.43 21.7699L21.9 3.30988C22.2 3.00988 22.2 2.52988 21.9 2.22988Z" fill="#171717"/>
<path d="M22.88 8.37998V15.62C22.88 17.05 22.18 17.62 21.78 17.83C21.59 17.93 21.29 18.04 20.92 18.04C20.49 18.04 19.96 17.9 19.34 17.46L17.86 16.42C17.79 18.63 17.09 19.89 15.5 20.42C14.86 20.65 14.07 20.75 13.12 20.75H7.11997C6.87997 20.75 6.64997 20.74 6.40997 20.71L15.5 11.63L21.15 5.97998C21.41 5.99998 21.62 6.07998 21.78 6.16998C22.18 6.37998 22.88 6.94998 22.88 8.37998Z" fill="#171717"/>
</svg>
