<svg width="25" height="24" viewBox="0 0 25 24" fill="none" xmlns="http://www.w3.org/2000/svg">
<path d="M16.92 6.41989V7.57989L9.63996 14.8599C8.67996 13.9899 8.07996 12.7099 8.07996 11.3399V6.41989C8.07996 4.35989 9.47996 2.64989 11.38 2.15989C11.57 2.10989 11.75 2.26989 11.75 2.45989V3.99989C11.75 4.40989 12.09 4.74989 12.5 4.74989C12.91 4.74989 13.25 4.40989 13.25 3.99989V2.45989C13.25 2.26989 13.43 2.10989 13.62 2.15989C15.52 2.64989 16.92 4.35989 16.92 6.41989Z" fill="#171717"/>
<path d="M20.31 9.81012V11.4001C20.31 15.4701 17.18 18.8201 13.2 19.1701V21.3001C13.2 21.6901 12.89 22.0001 12.5 22.0001C12.11 22.0001 11.8 21.6901 11.8 21.3001V19.1701C10.71 19.0701 9.68001 18.7501 8.76001 18.2401L9.79001 17.2101C10.61 17.5901 11.53 17.8101 12.5 17.8101C16.04 17.8101 18.92 14.9301 18.92 11.4001V9.81012C18.92 9.43012 19.23 9.12012 19.62 9.12012C20 9.12012 20.31 9.43012 20.31 9.81012Z" fill="#171717"/>
<path d="M16.92 10.0801V11.5301C16.92 14.1101 14.7 16.1801 12.06 15.9301C11.78 15.9001 11.5 15.8501 11.24 15.7601L16.92 10.0801Z" fill="#171717"/>
<path d="M22.27 2.22988C21.97 1.92988 21.48 1.92988 21.18 2.22988L7.73 15.6799C6.7 14.5499 6.07999 13.0499 6.07999 11.3999V9.80988C6.07999 9.42988 5.77 9.11988 5.38 9.11988C5 9.11988 4.69 9.42988 4.69 9.80988V11.3999C4.69 13.4299 5.47 15.2799 6.74 16.6699L2.72 20.6899C2.42 20.9899 2.42 21.4799 2.72 21.7799C2.88 21.9199 3.07 21.9999 3.27 21.9999C3.47 21.9999 3.66 21.9199 3.81 21.7699L22.27 3.30988C22.58 3.00988 22.58 2.52988 22.27 2.22988Z" fill="#171717"/>
</svg>
