<svg width="128" height="44" viewBox="0 0 128 44" fill="none" xmlns="http://www.w3.org/2000/svg">
<g filter="url(#filter0_d_2932_10)">
<rect x="2" width="124" height="40" rx="2" fill="#F3F1F1"/>
</g>
<path d="M7.56128 17V9H10.2644C10.892 9 11.405 9.11328 11.8035 9.33984C12.2045 9.5638 12.5014 9.86719 12.6941 10.25C12.8868 10.6328 12.9832 11.0599 12.9832 11.5312C12.9832 12.0026 12.8868 12.431 12.6941 12.8164C12.504 13.2018 12.2097 13.5091 11.8113 13.7383C11.4128 13.9648 10.9024 14.0781 10.28 14.0781H8.34253V13.2188H10.2488C10.6785 13.2188 11.0235 13.1445 11.2839 12.9961C11.5444 12.8477 11.7332 12.6471 11.8503 12.3945C11.9701 12.1393 12.03 11.8516 12.03 11.5312C12.03 11.2109 11.9701 10.9245 11.8503 10.6719C11.7332 10.4193 11.5431 10.2214 11.28 10.0781C11.017 9.93229 10.6681 9.85937 10.2332 9.85937H8.53003V17H7.56128ZM16.7917 17.125C16.2501 17.125 15.7748 16.9961 15.366 16.7383C14.9597 16.4805 14.642 16.1198 14.4128 15.6562C14.1863 15.1927 14.073 14.651 14.073 14.0312C14.073 13.4062 14.1863 12.8607 14.4128 12.3945C14.642 11.9284 14.9597 11.5664 15.366 11.3086C15.7748 11.0508 16.2501 10.9219 16.7917 10.9219C17.3334 10.9219 17.8074 11.0508 18.2136 11.3086C18.6225 11.5664 18.9402 11.9284 19.1667 12.3945C19.3959 12.8607 19.5105 13.4062 19.5105 14.0312C19.5105 14.651 19.3959 15.1927 19.1667 15.6562C18.9402 16.1198 18.6225 16.4805 18.2136 16.7383C17.8074 16.9961 17.3334 17.125 16.7917 17.125ZM16.7917 16.2969C17.2032 16.2969 17.5417 16.1914 17.8074 15.9805C18.073 15.7695 18.2696 15.4922 18.3972 15.1484C18.5248 14.8047 18.5886 14.4323 18.5886 14.0312C18.5886 13.6302 18.5248 13.2565 18.3972 12.9102C18.2696 12.5638 18.073 12.2839 17.8074 12.0703C17.5417 11.8568 17.2032 11.75 16.7917 11.75C16.3803 11.75 16.0417 11.8568 15.7761 12.0703C15.5105 12.2839 15.3139 12.5638 15.1863 12.9102C15.0587 13.2565 14.9949 13.6302 14.9949 14.0312C14.9949 14.4323 15.0587 14.8047 15.1863 15.1484C15.3139 15.4922 15.5105 15.7695 15.7761 15.9805C16.0417 16.1914 16.3803 16.2969 16.7917 16.2969ZM22.073 17L20.2449 11H21.2136L22.5105 15.5938H22.573L23.8542 11H24.8386L26.1042 15.5781H26.1667L27.4636 11H28.4324L26.6042 17H25.698L24.3855 12.3906H24.2917L22.9792 17H22.073ZM31.9626 17.125C31.3845 17.125 30.8858 16.9974 30.4666 16.7422C30.0499 16.4844 29.7283 16.125 29.5017 15.6641C29.2778 15.2005 29.1658 14.6615 29.1658 14.0469C29.1658 13.4323 29.2778 12.8906 29.5017 12.4219C29.7283 11.9505 30.0434 11.5833 30.447 11.3203C30.8533 11.0547 31.3272 10.9219 31.8689 10.9219C32.1814 10.9219 32.49 10.974 32.7947 11.0781C33.0994 11.1823 33.3767 11.3516 33.6267 11.5859C33.8767 11.8177 34.0759 12.125 34.2244 12.5078C34.3728 12.8906 34.447 13.362 34.447 13.9219V14.3125H29.822V13.5156H33.5095C33.5095 13.1771 33.4418 12.875 33.3064 12.6094C33.1736 12.3437 32.9835 12.1341 32.7361 11.9805C32.4913 11.8268 32.2022 11.75 31.8689 11.75C31.5017 11.75 31.184 11.8411 30.9158 12.0234C30.6501 12.2031 30.4457 12.4375 30.3025 12.7266C30.1593 13.0156 30.0876 13.3255 30.0876 13.6562V14.1875C30.0876 14.6406 30.1658 15.0247 30.322 15.3398C30.4809 15.6523 30.7009 15.8906 30.9822 16.0547C31.2634 16.2161 31.5903 16.2969 31.9626 16.2969C32.2048 16.2969 32.4236 16.263 32.6189 16.1953C32.8168 16.125 32.9874 16.0208 33.1306 15.8828C33.2738 15.7422 33.3845 15.5677 33.4626 15.3594L34.3533 15.6094C34.2595 15.9115 34.102 16.1771 33.8806 16.4062C33.6593 16.6328 33.3858 16.8099 33.0603 16.9375C32.7348 17.0625 32.3689 17.125 31.9626 17.125ZM35.8494 17V11H36.74V11.9062H36.8025C36.9119 11.6094 37.1098 11.3685 37.3962 11.1836C37.6827 10.9987 38.0056 10.9062 38.365 10.9062C38.4327 10.9062 38.5173 10.9076 38.6189 10.9102C38.7205 10.9128 38.7973 10.9167 38.8494 10.9219V11.8594C38.8181 11.8516 38.7465 11.8398 38.6345 11.8242C38.5251 11.806 38.4093 11.7969 38.2869 11.7969C37.9952 11.7969 37.7348 11.8581 37.5056 11.9805C37.2791 12.1003 37.0994 12.2669 36.9666 12.4805C36.8363 12.6914 36.7712 12.9323 36.7712 13.2031V17H35.8494ZM42.2751 17.125C41.697 17.125 41.1983 16.9974 40.7791 16.7422C40.3624 16.4844 40.0408 16.125 39.8142 15.6641C39.5903 15.2005 39.4783 14.6615 39.4783 14.0469C39.4783 13.4323 39.5903 12.8906 39.8142 12.4219C40.0408 11.9505 40.3559 11.5833 40.7595 11.3203C41.1658 11.0547 41.6397 10.9219 42.1814 10.9219C42.4939 10.9219 42.8025 10.974 43.1072 11.0781C43.4119 11.1823 43.6892 11.3516 43.9392 11.5859C44.1892 11.8177 44.3884 12.125 44.5369 12.5078C44.6853 12.8906 44.7595 13.362 44.7595 13.9219V14.3125H40.1345V13.5156H43.822C43.822 13.1771 43.7543 12.875 43.6189 12.6094C43.4861 12.3437 43.296 12.1341 43.0486 11.9805C42.8038 11.8268 42.5147 11.75 42.1814 11.75C41.8142 11.75 41.4965 11.8411 41.2283 12.0234C40.9626 12.2031 40.7582 12.4375 40.615 12.7266C40.4718 13.0156 40.4001 13.3255 40.4001 13.6562V14.1875C40.4001 14.6406 40.4783 15.0247 40.6345 15.3398C40.7934 15.6523 41.0134 15.8906 41.2947 16.0547C41.5759 16.2161 41.9028 16.2969 42.2751 16.2969C42.5173 16.2969 42.7361 16.263 42.9314 16.1953C43.1293 16.125 43.2999 16.0208 43.4431 15.8828C43.5863 15.7422 43.697 15.5677 43.7751 15.3594L44.6658 15.6094C44.572 15.9115 44.4145 16.1771 44.1931 16.4062C43.9718 16.6328 43.6983 16.8099 43.3728 16.9375C43.0473 17.0625 42.6814 17.125 42.2751 17.125ZM48.4275 17.125C47.9275 17.125 47.4861 16.9987 47.1033 16.7461C46.7205 16.4909 46.421 16.1315 46.2048 15.668C45.9887 15.2018 45.8806 14.651 45.8806 14.0156C45.8806 13.3854 45.9887 12.8385 46.2048 12.375C46.421 11.9115 46.7218 11.5534 47.1072 11.3008C47.4926 11.0482 47.9379 10.9219 48.4431 10.9219C48.8337 10.9219 49.1423 10.987 49.3689 11.1172C49.5981 11.2448 49.7725 11.3906 49.8923 11.5547C50.0147 11.7161 50.1098 11.849 50.1775 11.9531H50.2556V9H51.1775V17H50.2869V16.0781H50.1775C50.1098 16.1875 50.0134 16.3255 49.8884 16.4922C49.7634 16.6562 49.585 16.8034 49.3533 16.9336C49.1215 17.0612 48.8129 17.125 48.4275 17.125ZM48.5525 16.2969C48.9223 16.2969 49.2348 16.2005 49.49 16.0078C49.7452 15.8125 49.9392 15.543 50.072 15.1992C50.2048 14.8529 50.2712 14.4531 50.2712 14C50.2712 13.5521 50.2061 13.1602 50.0759 12.8242C49.9457 12.4857 49.753 12.2227 49.4978 12.0352C49.2426 11.8451 48.9275 11.75 48.5525 11.75C48.1619 11.75 47.8363 11.8503 47.5759 12.0508C47.3181 12.2487 47.1241 12.5182 46.9939 12.8594C46.8663 13.1979 46.8025 13.5781 46.8025 14C46.8025 14.4271 46.8676 14.8151 46.9978 15.1641C47.1306 15.5104 47.3259 15.7865 47.5837 15.9922C47.8442 16.1953 48.1671 16.2969 48.5525 16.2969ZM56.2126 17V9H57.1345V11.9531H57.2126C57.2804 11.849 57.3741 11.7161 57.4939 11.5547C57.6163 11.3906 57.7908 11.2448 58.0173 11.1172C58.2465 10.987 58.5564 10.9219 58.947 10.9219C59.4522 10.9219 59.8975 11.0482 60.283 11.3008C60.6684 11.5534 60.9692 11.9115 61.1853 12.375C61.4014 12.8385 61.5095 13.3854 61.5095 14.0156C61.5095 14.651 61.4014 15.2018 61.1853 15.668C60.9692 16.1315 60.6697 16.4909 60.2869 16.7461C59.9041 16.9987 59.4626 17.125 58.9626 17.125C58.5772 17.125 58.2686 17.0612 58.0369 16.9336C57.8051 16.8034 57.6267 16.6562 57.5017 16.4922C57.3767 16.3255 57.2804 16.1875 57.2126 16.0781H57.1033V17H56.2126ZM57.1189 14C57.1189 14.4531 57.1853 14.8529 57.3181 15.1992C57.4509 15.543 57.6449 15.8125 57.9001 16.0078C58.1554 16.2005 58.4679 16.2969 58.8376 16.2969C59.2231 16.2969 59.5447 16.1953 59.8025 15.9922C60.0629 15.7865 60.2582 15.5104 60.3884 15.1641C60.5212 14.8151 60.5876 14.4271 60.5876 14C60.5876 13.5781 60.5225 13.1979 60.3923 12.8594C60.2647 12.5182 60.0707 12.2487 59.8103 12.0508C59.5525 11.8503 59.2283 11.75 58.8376 11.75C58.4626 11.75 58.1475 11.8451 57.8923 12.0352C57.6371 12.2227 57.4444 12.4857 57.3142 12.8242C57.184 13.1602 57.1189 13.5521 57.1189 14ZM63.2986 19.25C63.1423 19.25 63.003 19.237 62.8806 19.2109C62.7582 19.1875 62.6736 19.1641 62.6267 19.1406L62.8611 18.3281C63.085 18.3854 63.283 18.4063 63.4548 18.3906C63.6267 18.375 63.7791 18.2982 63.9119 18.1602C64.0473 18.0247 64.171 17.8047 64.283 17.5L64.4548 17.0313L62.2361 11H63.2361L64.8923 15.7812H64.9548L66.6111 11H67.6111L65.0642 17.875C64.9496 18.1849 64.8077 18.4414 64.6384 18.6445C64.4692 18.8503 64.2725 19.0026 64.0486 19.1016C63.8272 19.2005 63.5772 19.25 63.2986 19.25Z" fill="#6E6E6E"/>
<path d="M93.5798 10.2148V9H99.9626V10.2148H97.49V17H96.0525V10.2148H93.5798ZM102.041 17.1211C101.661 17.1211 101.318 17.0534 101.013 16.918C100.711 16.7799 100.472 16.5768 100.295 16.3086C100.12 16.0404 100.033 15.7096 100.033 15.3164C100.033 14.9779 100.095 14.6979 100.22 14.4766C100.345 14.2552 100.516 14.0781 100.732 13.9453C100.948 13.8125 101.192 13.7122 101.463 13.6445C101.736 13.5742 102.019 13.5234 102.31 13.4922C102.662 13.4557 102.947 13.4232 103.166 13.3945C103.385 13.3633 103.543 13.3164 103.642 13.2539C103.744 13.1888 103.795 13.0885 103.795 12.9531V12.9297C103.795 12.6354 103.707 12.4076 103.533 12.2461C103.358 12.0846 103.107 12.0039 102.779 12.0039C102.433 12.0039 102.158 12.0794 101.955 12.2305C101.754 12.3815 101.619 12.5599 101.549 12.7656L100.228 12.5781C100.332 12.2135 100.504 11.9089 100.744 11.6641C100.983 11.4167 101.276 11.2318 101.623 11.1094C101.969 10.9844 102.352 10.9219 102.771 10.9219C103.06 10.9219 103.348 10.9557 103.635 11.0234C103.921 11.0911 104.183 11.2031 104.42 11.3594C104.657 11.513 104.847 11.7227 104.99 11.9883C105.136 12.2539 105.209 12.5859 105.209 12.9844V17H103.849V16.1758H103.802C103.717 16.3424 103.595 16.4987 103.439 16.6445C103.286 16.7878 103.092 16.9036 102.857 16.9922C102.625 17.0781 102.353 17.1211 102.041 17.1211ZM102.408 16.082C102.692 16.082 102.938 16.026 103.146 15.9141C103.355 15.7995 103.515 15.6484 103.627 15.4609C103.741 15.2734 103.799 15.069 103.799 14.8477V14.1406C103.754 14.1771 103.679 14.2109 103.572 14.2422C103.468 14.2734 103.351 14.3008 103.22 14.3242C103.09 14.3477 102.961 14.3685 102.834 14.3867C102.706 14.4049 102.595 14.4206 102.502 14.4336C102.291 14.4622 102.102 14.5091 101.935 14.5742C101.769 14.6393 101.637 14.7305 101.541 14.8477C101.444 14.9622 101.396 15.1107 101.396 15.293C101.396 15.5534 101.491 15.75 101.681 15.8828C101.872 16.0156 102.114 16.082 102.408 16.082ZM108.045 9V17H106.631V9H108.045ZM110.788 15.1172L110.784 13.4102H111.01L113.167 11H114.819L112.167 13.9531H111.874L110.788 15.1172ZM109.499 17V9H110.913V17H109.499ZM113.264 17L111.311 14.2695L112.264 13.2734L114.956 17H113.264Z" fill="black"/>
<path d="M71.8669 17V9H73.3162V15.7852H76.8396V17H71.8669ZM80.6912 17.1172C80.0896 17.1172 79.5701 16.9922 79.1326 16.7422C78.6977 16.4896 78.363 16.1328 78.1287 15.6719C77.8943 15.2083 77.7771 14.6628 77.7771 14.0352C77.7771 13.418 77.8943 12.8763 78.1287 12.4102C78.3656 11.9414 78.6964 11.5768 79.1208 11.3164C79.5453 11.0534 80.044 10.9219 80.6169 10.9219C80.9867 10.9219 81.3357 10.9818 81.6638 11.1016C81.9945 11.2187 82.2862 11.401 82.5388 11.6484C82.794 11.8958 82.9945 12.2109 83.1404 12.5937C83.2862 12.974 83.3591 13.4271 83.3591 13.9531V14.3867H78.4412V13.4336H82.0037C82.0011 13.1628 81.9425 12.9219 81.8279 12.7109C81.7133 12.4974 81.5531 12.3294 81.3474 12.207C81.1443 12.0846 80.9073 12.0234 80.6365 12.0234C80.3474 12.0234 80.0935 12.0937 79.8748 12.2344C79.656 12.3724 79.4854 12.5547 79.363 12.7812C79.2432 13.0052 79.182 13.2513 79.1794 13.5195V14.3516C79.1794 14.7005 79.2432 15 79.3708 15.25C79.4985 15.4974 79.6768 15.6875 79.906 15.8203C80.1352 15.9505 80.4034 16.0156 80.7107 16.0156C80.9164 16.0156 81.1026 15.987 81.2693 15.9297C81.436 15.8698 81.5805 15.7826 81.7029 15.668C81.8253 15.5534 81.9177 15.4115 81.9802 15.2422L83.3005 15.3906C83.2172 15.7396 83.0583 16.0443 82.824 16.3047C82.5922 16.5625 82.2953 16.763 81.9333 16.9062C81.5714 17.0469 81.1573 17.1172 80.6912 17.1172ZM87.5515 11V12.0937H84.1023V11H87.5515ZM84.9539 9.5625H86.3679V15.1953C86.3679 15.3854 86.3966 15.5313 86.4539 15.6328C86.5138 15.7318 86.5919 15.7995 86.6882 15.8359C86.7846 15.8724 86.8914 15.8906 87.0085 15.8906C87.0971 15.8906 87.1778 15.8841 87.2507 15.8711C87.3263 15.8581 87.3835 15.8464 87.4226 15.8359L87.6609 16.9414C87.5854 16.9674 87.4773 16.9961 87.3367 17.0273C87.1986 17.0586 87.0294 17.0768 86.8289 17.082C86.4747 17.0924 86.1557 17.0391 85.8718 16.9219C85.588 16.8021 85.3627 16.6172 85.196 16.3672C85.032 16.1172 84.9513 15.8047 84.9539 15.4297V9.5625ZM93.3904 12.5859L92.1013 12.7266C92.0649 12.5964 92.0011 12.474 91.9099 12.3594C91.8214 12.2448 91.7016 12.1523 91.5505 12.082C91.3995 12.0117 91.2146 11.9766 90.9958 11.9766C90.7016 11.9766 90.4542 12.0404 90.2537 12.168C90.0557 12.2956 89.9581 12.4609 89.9607 12.6641C89.9581 12.8385 90.0219 12.9805 90.1521 13.0898C90.2849 13.1992 90.5037 13.2891 90.8083 13.3594L91.8318 13.5781C92.3995 13.7005 92.8214 13.8945 93.0974 14.1602C93.3761 14.4258 93.5167 14.7734 93.5193 15.2031C93.5167 15.5807 93.406 15.9141 93.1873 16.2031C92.9711 16.4896 92.6703 16.7135 92.2849 16.875C91.8995 17.0365 91.4568 17.1172 90.9568 17.1172C90.2224 17.1172 89.6313 16.9635 89.1833 16.6562C88.7354 16.3464 88.4685 15.9154 88.3826 15.3633L89.7615 15.2305C89.824 15.5013 89.9568 15.7057 90.1599 15.8437C90.363 15.9818 90.6274 16.0508 90.9529 16.0508C91.2888 16.0508 91.5583 15.9818 91.7615 15.8437C91.9672 15.7057 92.0701 15.5352 92.0701 15.332C92.0701 15.1602 92.0037 15.0182 91.8708 14.9062C91.7406 14.7943 91.5375 14.7083 91.2615 14.6484L90.238 14.4336C89.6625 14.3138 89.2367 14.112 88.9607 13.8281C88.6847 13.5417 88.5479 13.1797 88.5505 12.7422C88.5479 12.3724 88.6482 12.0521 88.8513 11.7812C89.057 11.5078 89.3422 11.2969 89.7068 11.1484C90.074 10.9974 90.4972 10.9219 90.9763 10.9219C91.6794 10.9219 92.2328 11.0716 92.6365 11.3711C93.0427 11.6706 93.294 12.0755 93.3904 12.5859Z" fill="#EF8435"/>
<path d="M7.80318 32V25.3673H8.60636V28.3209H12.143V25.3673H12.9461V32H12.143V29.0334H8.60636V32H7.80318ZM16.4714 32.1036C16.0223 32.1036 15.6283 31.9968 15.2893 31.783C14.9525 31.5693 14.6891 31.2702 14.4991 30.8859C14.3112 30.5016 14.2173 30.0525 14.2173 29.5386C14.2173 29.0205 14.3112 28.5681 14.4991 28.1816C14.6891 27.7952 14.9525 27.4951 15.2893 27.2813C15.6283 27.0676 16.0223 26.9607 16.4714 26.9607C16.9205 26.9607 17.3134 27.0676 17.6503 27.2813C17.9892 27.4951 18.2526 27.7952 18.4405 28.1816C18.6305 28.5681 18.7255 29.0205 18.7255 29.5386C18.7255 30.0525 18.6305 30.5016 18.4405 30.8859C18.2526 31.2702 17.9892 31.5693 17.6503 31.783C17.3134 31.9968 16.9205 32.1036 16.4714 32.1036ZM16.4714 31.417C16.8125 31.417 17.0932 31.3296 17.3134 31.1547C17.5337 30.9798 17.6967 30.7499 17.8025 30.4649C17.9083 30.1799 17.9612 29.8711 17.9612 29.5386C17.9612 29.2061 17.9083 28.8963 17.8025 28.6091C17.6967 28.322 17.5337 28.0899 17.3134 27.9128C17.0932 27.7358 16.8125 27.6473 16.4714 27.6473C16.1303 27.6473 15.8496 27.7358 15.6293 27.9128C15.4091 28.0899 15.2461 28.322 15.1403 28.6091C15.0345 28.8963 14.9816 29.2061 14.9816 29.5386C14.9816 29.8711 15.0345 30.1799 15.1403 30.4649C15.2461 30.7499 15.4091 30.9798 15.6293 31.1547C15.8496 31.3296 16.1303 31.417 16.4714 31.417ZM23.4158 28.1395L22.7292 28.3339C22.6861 28.2194 22.6224 28.1082 22.5382 28.0003C22.4561 27.8902 22.3438 27.7995 22.2013 27.7282C22.0588 27.657 21.8764 27.6214 21.654 27.6214C21.3496 27.6214 21.0959 27.6915 20.8929 27.8319C20.6921 27.9701 20.5917 28.146 20.5917 28.3598C20.5917 28.5498 20.6608 28.6998 20.799 28.8099C20.9372 28.9201 21.1531 29.0118 21.4467 29.0852L22.1852 29.2666C22.6299 29.3745 22.9613 29.5397 23.1794 29.7621C23.3975 29.9823 23.5065 30.2662 23.5065 30.6139C23.5065 30.8989 23.4245 31.1536 23.2604 31.3782C23.0985 31.6027 22.8717 31.7798 22.5803 31.9093C22.2888 32.0389 21.9498 32.1036 21.5633 32.1036C21.056 32.1036 20.636 31.9935 20.3035 31.7733C19.971 31.5531 19.7605 31.2314 19.672 30.8082L20.3974 30.6268C20.4665 30.8945 20.5971 31.0953 20.7893 31.2292C20.9836 31.3631 21.2373 31.43 21.5504 31.43C21.9066 31.43 22.1895 31.3544 22.3989 31.2033C22.6105 31.05 22.7163 30.8665 22.7163 30.6527C22.7163 30.48 22.6558 30.3353 22.5349 30.2188C22.414 30.1 22.2283 30.0115 21.9779 29.9532L21.1488 29.7589C20.6932 29.6509 20.3586 29.4836 20.1448 29.2569C19.9332 29.028 19.8274 28.7419 19.8274 28.3986C19.8274 28.118 19.9062 27.8697 20.0638 27.6538C20.2236 27.4378 20.4406 27.2684 20.7148 27.1453C20.9912 27.0222 21.3042 26.9607 21.654 26.9607C22.1463 26.9607 22.5328 27.0686 22.8135 27.2845C23.0963 27.5005 23.2971 27.7855 23.4158 28.1395ZM26.8205 27.0255V27.6732H24.2425V27.0255H26.8205ZM24.9939 25.8336H25.7582V30.575C25.7582 30.7909 25.7895 30.9528 25.8521 31.0608C25.9169 31.1666 25.9989 31.2378 26.0982 31.2745C26.1997 31.3091 26.3066 31.3264 26.4189 31.3264C26.5031 31.3264 26.5722 31.322 26.6261 31.3134C26.6801 31.3026 26.7233 31.294 26.7557 31.2875L26.9111 31.9741C26.8593 31.9935 26.787 32.013 26.6941 32.0324C26.6013 32.054 26.4836 32.0648 26.3411 32.0648C26.1252 32.0648 25.9136 32.0184 25.7064 31.9255C25.5013 31.8327 25.3307 31.6913 25.1947 31.5013C25.0608 31.3113 24.9939 31.0716 24.9939 30.7823V25.8336ZM30.0024 32.1036C29.5231 32.1036 29.1096 31.9978 28.762 31.7863C28.4166 31.5725 28.1499 31.2745 27.9621 30.8924C27.7764 30.5081 27.6835 30.0611 27.6835 29.5516C27.6835 29.042 27.7764 28.593 27.9621 28.2043C28.1499 27.8135 28.4112 27.5091 28.7458 27.291C29.0826 27.0708 29.4756 26.9607 29.9247 26.9607C30.1838 26.9607 30.4396 27.0039 30.6922 27.0902C30.9449 27.1766 31.1748 27.3169 31.3821 27.5113C31.5893 27.7034 31.7545 27.9582 31.8776 28.2756C32.0007 28.593 32.0622 28.9837 32.0622 29.448V29.7718H28.2276V29.1111H31.2849C31.2849 28.8305 31.2288 28.58 31.1165 28.3598C31.0064 28.1395 30.8488 27.9657 30.6437 27.8384C30.4407 27.711 30.201 27.6473 29.9247 27.6473C29.6203 27.6473 29.3568 27.7228 29.1345 27.874C28.9142 28.023 28.7447 28.2173 28.626 28.4569C28.5072 28.6966 28.4479 28.9535 28.4479 29.2277V29.6682C28.4479 30.0439 28.5126 30.3623 28.6422 30.6236C28.7739 30.8827 28.9563 31.0802 29.1895 31.2163C29.4227 31.3501 29.6937 31.417 30.0024 31.417C30.2032 31.417 30.3846 31.389 30.5465 31.3328C30.7106 31.2745 30.852 31.1882 30.9708 31.0738C31.0895 30.9572 31.1813 30.8125 31.246 30.6398L31.9845 30.847C31.9067 31.0975 31.7761 31.3177 31.5926 31.5077C31.4091 31.6956 31.1824 31.8424 30.9125 31.9482C30.6426 32.0518 30.3392 32.1036 30.0024 32.1036ZM35.1033 32.1036C34.6887 32.1036 34.3228 31.9989 34.0054 31.7895C33.688 31.5779 33.4397 31.2799 33.2605 30.8956C33.0813 30.5091 32.9917 30.0525 32.9917 29.5257C32.9917 29.0032 33.0813 28.5498 33.2605 28.1655C33.4397 27.7811 33.6891 27.4843 34.0086 27.2748C34.3282 27.0654 34.6974 26.9607 35.1162 26.9607C35.4401 26.9607 35.6959 27.0147 35.8838 27.1226C36.0738 27.2284 36.2184 27.3493 36.3178 27.4853C36.4192 27.6192 36.498 27.7293 36.5542 27.8157H36.6189V25.3673H37.3833V32H36.6449V31.2357H36.5542C36.498 31.3264 36.4182 31.4408 36.3145 31.579C36.2109 31.715 36.063 31.837 35.8708 31.9449C35.6787 32.0507 35.4228 32.1036 35.1033 32.1036ZM35.2069 31.417C35.5135 31.417 35.7726 31.3372 35.9842 31.1774C36.1958 31.0155 36.3566 30.792 36.4667 30.507C36.5768 30.2198 36.6319 29.8884 36.6319 29.5127C36.6319 29.1414 36.5779 28.8164 36.47 28.5379C36.362 28.2572 36.2022 28.0391 35.9907 27.8837C35.7791 27.7261 35.5178 27.6473 35.2069 27.6473C34.883 27.6473 34.6132 27.7304 34.3972 27.8966C34.1835 28.0607 34.0226 28.2842 33.9147 28.567C33.8089 28.8477 33.756 29.163 33.756 29.5127C33.756 29.8668 33.81 30.1885 33.9179 30.4778C34.028 30.765 34.19 30.9939 34.4037 31.1644C34.6196 31.3328 34.8874 31.417 35.2069 31.417ZM43.4751 32.1036C43.0261 32.1036 42.632 31.9968 42.293 31.783C41.9562 31.5693 41.6928 31.2702 41.5028 30.8859C41.315 30.5016 41.2211 30.0525 41.2211 29.5386C41.2211 29.0205 41.315 28.5681 41.5028 28.1816C41.6928 27.7952 41.9562 27.4951 42.293 27.2813C42.632 27.0676 43.0261 26.9607 43.4751 26.9607C43.9242 26.9607 44.3172 27.0676 44.654 27.2813C44.993 27.4951 45.2564 27.7952 45.4442 28.1816C45.6342 28.5681 45.7292 29.0205 45.7292 29.5386C45.7292 30.0525 45.6342 30.5016 45.4442 30.8859C45.2564 31.2702 44.993 31.5693 44.654 31.783C44.3172 31.9968 43.9242 32.1036 43.4751 32.1036ZM43.4751 31.417C43.8163 31.417 44.097 31.3296 44.3172 31.1547C44.5374 30.9798 44.7004 30.7499 44.8062 30.4649C44.912 30.1799 44.9649 29.8711 44.9649 29.5386C44.9649 29.2061 44.912 28.8963 44.8062 28.6091C44.7004 28.322 44.5374 28.0899 44.3172 27.9128C44.097 27.7358 43.8163 27.6473 43.4751 27.6473C43.134 27.6473 42.8533 27.7358 42.6331 27.9128C42.4129 28.0899 42.2499 28.322 42.1441 28.6091C42.0383 28.8963 41.9854 29.2061 41.9854 29.5386C41.9854 29.8711 42.0383 30.1799 42.1441 30.4649C42.2499 30.7499 42.4129 30.9798 42.6331 31.1547C42.8533 31.3296 43.134 31.417 43.4751 31.417ZM47.6603 29.0075V32H46.8959V27.0255H47.6344V27.8027H47.6991C47.8157 27.5501 47.9928 27.3472 48.2303 27.1939C48.4678 27.0384 48.7744 26.9607 49.15 26.9607C49.4869 26.9607 49.7816 27.0298 50.0342 27.168C50.2868 27.304 50.4833 27.5113 50.6236 27.7898C50.764 28.0661 50.8341 28.4159 50.8341 28.8391V32H50.0698V28.8909C50.0698 28.5001 49.9683 28.1957 49.7654 27.9776C49.5624 27.7574 49.2839 27.6473 48.9298 27.6473C48.6858 27.6473 48.4678 27.7002 48.2756 27.806C48.0856 27.9118 47.9356 28.0661 47.8254 28.2691C47.7153 28.472 47.6603 28.7182 47.6603 29.0075Z" fill="#6E6E6E"/>
<path d="M54.2185 32V25.3673H58.6101V26.5235H55.6208V28.1039H58.3186V29.2601H55.6208V32H54.2185ZM59.5274 32V27.0255H60.9071V32H59.5274ZM60.2205 26.3842C60.0154 26.3842 59.8394 26.3162 59.6926 26.1802C59.548 26.042 59.4756 25.8768 59.4756 25.6847C59.4756 25.4947 59.548 25.3316 59.6926 25.1956C59.8394 25.0574 60.0154 24.9884 60.2205 24.9884C60.4256 24.9884 60.6005 25.0574 60.7452 25.1956C60.892 25.3316 60.9654 25.4947 60.9654 25.6847C60.9654 25.8768 60.892 26.042 60.7452 26.1802C60.6005 26.3162 60.4256 26.3842 60.2205 26.3842ZM64.6874 27.0255V28.0618H61.6172V27.0255H64.6874ZM62.32 32V26.666C62.32 26.3054 62.3901 26.0064 62.5305 25.7689C62.673 25.5314 62.8673 25.3532 63.1134 25.2345C63.3596 25.1157 63.6392 25.0564 63.9522 25.0564C64.1638 25.0564 64.3571 25.0726 64.5319 25.1049C64.709 25.1373 64.8407 25.1665 64.9271 25.1924L64.6809 26.2288C64.6269 26.2115 64.56 26.1953 64.4801 26.1802C64.4024 26.1651 64.3225 26.1575 64.2405 26.1575C64.0375 26.1575 63.8961 26.205 63.8162 26.3C63.7363 26.3928 63.6964 26.5235 63.6964 26.6919V32H62.32ZM68.1762 27.0255V28.0618H65.1805V27.0255H68.1762ZM65.8606 25.8336H67.2403V30.4714C67.2403 30.5987 67.2597 30.6981 67.2986 30.7693C67.3374 30.8384 67.3914 30.887 67.4605 30.9151C67.5317 30.9431 67.6138 30.9572 67.7066 30.9572C67.7714 30.9572 67.8362 30.9518 67.9009 30.941C67.9657 30.928 68.0154 30.9183 68.0499 30.9118L68.2669 31.9385C68.1978 31.9601 68.1007 31.9849 67.9754 32.013C67.8502 32.0432 67.698 32.0615 67.5188 32.068C67.1863 32.081 66.8948 32.0367 66.6443 31.9352C66.3961 31.8337 66.2028 31.6761 66.0646 31.4624C65.9264 31.2486 65.8584 30.9787 65.8606 30.6527V25.8336ZM70.5615 29.1241V32H69.1818V25.3673H70.5226V27.9031H70.5809C70.6932 27.6095 70.8745 27.3795 71.125 27.2133C71.3755 27.0449 71.6896 26.9607 72.0674 26.9607C72.4129 26.9607 72.7141 27.0363 72.971 27.1874C73.2301 27.3364 73.4309 27.5512 73.5734 27.8319C73.7181 28.1104 73.7893 28.444 73.7872 28.8326V32H72.4075V29.0788C72.4097 28.7722 72.3319 28.5336 72.1743 28.363C72.0189 28.1924 71.8008 28.1072 71.5201 28.1072C71.3323 28.1072 71.166 28.1471 71.0214 28.227C70.8789 28.3069 70.7666 28.4235 70.6845 28.5768C70.6047 28.7279 70.5636 28.9103 70.5615 29.1241Z" fill="#EF8435"/>
<path d="M74.2276 26.5235V25.3673H79.675V26.5235H77.6444V32H76.2582V26.5235H74.2276ZM80.0296 32V27.0255H81.3672V27.8934H81.419C81.5097 27.5847 81.6619 27.3515 81.8757 27.1939C82.0894 27.0341 82.3355 26.9542 82.6141 26.9542C82.6832 26.9542 82.7576 26.9585 82.8375 26.9672C82.9174 26.9758 82.9876 26.9877 83.048 27.0028V28.227C82.9833 28.2076 82.8937 28.1903 82.7792 28.1752C82.6648 28.1601 82.5601 28.1525 82.4651 28.1525C82.2621 28.1525 82.0808 28.1968 81.921 28.2853C81.7634 28.3716 81.6382 28.4926 81.5453 28.648C81.4546 28.8035 81.4093 28.9827 81.4093 29.1856V32H80.0296ZM84.7645 33.8655C84.5896 33.8655 84.4255 33.8514 84.2722 33.8234C84.1211 33.7974 83.9959 33.764 83.8966 33.723L84.2075 32.6931C84.3694 32.7427 84.5151 32.7697 84.6447 32.774C84.7764 32.7784 84.8897 32.7481 84.9847 32.6834C85.0819 32.6186 85.1607 32.5085 85.2212 32.353L85.3021 32.1425L83.5176 27.0255H84.9685L85.9984 30.6786H86.0503L87.0899 27.0255H88.5505L86.617 32.5376C86.5242 32.8053 86.3979 33.0385 86.2381 33.2372C86.0805 33.438 85.8808 33.5923 85.6389 33.7003C85.3971 33.8104 85.1056 33.8655 84.7645 33.8655Z" fill="#333333"/>
<defs>
<filter id="filter0_d_2932_10" x="0" y="0" width="128" height="44" filterUnits="userSpaceOnUse" color-interpolation-filters="sRGB">
<feFlood flood-opacity="0" result="BackgroundImageFix"/>
<feColorMatrix in="SourceAlpha" type="matrix" values="0 0 0 0 0 0 0 0 0 0 0 0 0 0 0 0 0 0 127 0" result="hardAlpha"/>
<feOffset dy="2"/>
<feGaussianBlur stdDeviation="1"/>
<feComposite in2="hardAlpha" operator="out"/>
<feColorMatrix type="matrix" values="0 0 0 0 0 0 0 0 0 0 0 0 0 0 0 0 0 0 0.25 0"/>
<feBlend mode="normal" in2="BackgroundImageFix" result="effect1_dropShadow_2932_10"/>
<feBlend mode="normal" in="SourceGraphic" in2="effect1_dropShadow_2932_10" result="shape"/>
</filter>
</defs>
</svg>
